<mxfile host="app.diagrams.net" modified="2023-06-22T11:46:20.712Z" agent="Mozilla/5.0 (Windows NT 10.0; Win64; x64; rv:109.0) Gecko/20100101 Firefox/113.0" etag="bRsvazJxjhCwlhNSjGwD" version="21.3.6">
  <diagram name="Seite-1" id="J0c_VTKExnBa9tAr_sIy">
    <mxGraphModel dx="1231" dy="629" grid="1" gridSize="10" guides="1" tooltips="1" connect="1" arrows="1" fold="1" page="1" pageScale="1" pageWidth="827" pageHeight="1169" math="0" shadow="0">
      <root>
        <mxCell id="0" />
        <mxCell id="1" parent="0" />
        <mxCell id="w9KCVopszYJ56_shnlxz-53" style="edgeStyle=orthogonalEdgeStyle;rounded=0;orthogonalLoop=1;jettySize=auto;html=1;entryX=0.583;entryY=-0.012;entryDx=0;entryDy=0;entryPerimeter=0;" edge="1" parent="1" source="w9KCVopszYJ56_shnlxz-18" target="w9KCVopszYJ56_shnlxz-27">
          <mxGeometry relative="1" as="geometry">
            <mxPoint x="100" y="40" as="targetPoint" />
            <Array as="points">
              <mxPoint x="100" y="40" />
              <mxPoint x="551" y="40" />
            </Array>
          </mxGeometry>
        </mxCell>
        <mxCell id="w9KCVopszYJ56_shnlxz-18" value="Fach" style="swimlane;childLayout=stackLayout;resizeParent=1;resizeParentMax=0;horizontal=1;startSize=20;horizontalStack=0;html=1;" vertex="1" parent="1">
          <mxGeometry x="40" y="80" width="120" height="120" as="geometry" />
        </mxCell>
        <mxCell id="w9KCVopszYJ56_shnlxz-19" value="&lt;div&gt;Variable&lt;/div&gt;" style="swimlane;startSize=20;horizontal=0;html=1;" vertex="1" parent="w9KCVopszYJ56_shnlxz-18">
          <mxGeometry y="20" width="120" height="100" as="geometry">
            <mxRectangle y="20" width="480" height="40" as="alternateBounds" />
          </mxGeometry>
        </mxCell>
        <mxCell id="w9KCVopszYJ56_shnlxz-22" value="&lt;div&gt;ID (PK)&lt;br&gt;&lt;/div&gt;&lt;div&gt;Name&lt;br&gt;&lt;/div&gt;" style="text;html=1;align=center;verticalAlign=middle;resizable=0;points=[];autosize=1;strokeColor=none;fillColor=none;" vertex="1" parent="w9KCVopszYJ56_shnlxz-19">
          <mxGeometry x="30" y="10" width="60" height="40" as="geometry" />
        </mxCell>
        <mxCell id="w9KCVopszYJ56_shnlxz-23" value="Themengebiet" style="swimlane;childLayout=stackLayout;resizeParent=1;resizeParentMax=0;horizontal=1;startSize=20;horizontalStack=0;html=1;" vertex="1" parent="1">
          <mxGeometry x="240" y="80" width="120" height="120" as="geometry" />
        </mxCell>
        <mxCell id="w9KCVopszYJ56_shnlxz-24" value="&lt;div&gt;Variable&lt;/div&gt;" style="swimlane;startSize=20;horizontal=0;html=1;" vertex="1" parent="w9KCVopszYJ56_shnlxz-23">
          <mxGeometry y="20" width="120" height="100" as="geometry">
            <mxRectangle y="20" width="480" height="40" as="alternateBounds" />
          </mxGeometry>
        </mxCell>
        <mxCell id="w9KCVopszYJ56_shnlxz-25" value="&lt;div&gt;ID (PK)&lt;br&gt;&lt;/div&gt;&lt;div&gt;ID_Fach (FK)&lt;br&gt;&lt;/div&gt;&lt;div&gt;Name&lt;br&gt;&lt;/div&gt;" style="text;html=1;align=center;verticalAlign=middle;resizable=0;points=[];autosize=1;strokeColor=none;fillColor=none;" vertex="1" parent="w9KCVopszYJ56_shnlxz-24">
          <mxGeometry x="10" width="100" height="60" as="geometry" />
        </mxCell>
        <mxCell id="w9KCVopszYJ56_shnlxz-27" value="Frage" style="swimlane;childLayout=stackLayout;resizeParent=1;resizeParentMax=0;horizontal=1;startSize=20;horizontalStack=0;html=1;" vertex="1" parent="1">
          <mxGeometry x="440" y="80" width="200" height="120" as="geometry" />
        </mxCell>
        <mxCell id="w9KCVopszYJ56_shnlxz-28" value="&lt;div&gt;Variable&lt;/div&gt;" style="swimlane;startSize=20;horizontal=0;html=1;" vertex="1" parent="w9KCVopszYJ56_shnlxz-27">
          <mxGeometry y="20" width="200" height="100" as="geometry">
            <mxRectangle y="20" width="480" height="40" as="alternateBounds" />
          </mxGeometry>
        </mxCell>
        <mxCell id="w9KCVopszYJ56_shnlxz-29" value="&lt;div&gt;ID (PK)&lt;/div&gt;&lt;div&gt;ID_Fach (FK)&lt;/div&gt;&lt;div&gt;ID_Themengebiet (FK)&lt;br&gt;&lt;/div&gt;&lt;div&gt;Name&lt;br&gt;&lt;/div&gt;" style="text;html=1;align=center;verticalAlign=middle;resizable=0;points=[];autosize=1;strokeColor=none;fillColor=none;" vertex="1" parent="w9KCVopszYJ56_shnlxz-28">
          <mxGeometry x="30" y="10" width="150" height="70" as="geometry" />
        </mxCell>
        <mxCell id="w9KCVopszYJ56_shnlxz-30" value="Antwort" style="swimlane;childLayout=stackLayout;resizeParent=1;resizeParentMax=0;horizontal=1;startSize=20;horizontalStack=0;html=1;" vertex="1" parent="1">
          <mxGeometry x="707" y="80" width="120" height="120" as="geometry" />
        </mxCell>
        <mxCell id="w9KCVopszYJ56_shnlxz-31" value="&lt;div&gt;Variable&lt;/div&gt;" style="swimlane;startSize=20;horizontal=0;html=1;" vertex="1" parent="w9KCVopszYJ56_shnlxz-30">
          <mxGeometry y="20" width="120" height="100" as="geometry">
            <mxRectangle y="20" width="480" height="40" as="alternateBounds" />
          </mxGeometry>
        </mxCell>
        <mxCell id="w9KCVopszYJ56_shnlxz-32" value="&lt;div&gt;ID (PK)&lt;/div&gt;&lt;div&gt;ID_Frage (FK)&lt;br&gt;&lt;/div&gt;&lt;div&gt;Name&lt;br&gt;&lt;/div&gt;&lt;div&gt;Boolean: True&lt;br&gt;&lt;/div&gt;" style="text;html=1;align=center;verticalAlign=middle;resizable=0;points=[];autosize=1;strokeColor=none;fillColor=none;" vertex="1" parent="w9KCVopszYJ56_shnlxz-31">
          <mxGeometry x="20" width="100" height="70" as="geometry" />
        </mxCell>
        <mxCell id="w9KCVopszYJ56_shnlxz-39" style="edgeStyle=orthogonalEdgeStyle;rounded=0;orthogonalLoop=1;jettySize=auto;html=1;entryX=0;entryY=0.5;entryDx=0;entryDy=0;" edge="1" parent="1" source="w9KCVopszYJ56_shnlxz-19" target="w9KCVopszYJ56_shnlxz-24">
          <mxGeometry relative="1" as="geometry" />
        </mxCell>
        <mxCell id="w9KCVopszYJ56_shnlxz-41" value="n:m" style="text;html=1;strokeColor=none;fillColor=none;align=center;verticalAlign=middle;whiteSpace=wrap;rounded=0;" vertex="1" parent="1">
          <mxGeometry x="170" y="120" width="60" height="30" as="geometry" />
        </mxCell>
        <mxCell id="w9KCVopszYJ56_shnlxz-44" style="edgeStyle=orthogonalEdgeStyle;rounded=0;orthogonalLoop=1;jettySize=auto;html=1;entryX=0;entryY=0.5;entryDx=0;entryDy=0;" edge="1" parent="1" source="w9KCVopszYJ56_shnlxz-24" target="w9KCVopszYJ56_shnlxz-28">
          <mxGeometry relative="1" as="geometry" />
        </mxCell>
        <mxCell id="w9KCVopszYJ56_shnlxz-45" value="1:n" style="text;html=1;strokeColor=none;fillColor=none;align=center;verticalAlign=middle;whiteSpace=wrap;rounded=0;" vertex="1" parent="1">
          <mxGeometry x="370" y="120" width="60" height="30" as="geometry" />
        </mxCell>
        <mxCell id="w9KCVopszYJ56_shnlxz-48" style="edgeStyle=orthogonalEdgeStyle;rounded=0;orthogonalLoop=1;jettySize=auto;html=1;entryX=0;entryY=0.5;entryDx=0;entryDy=0;exitX=1;exitY=0.5;exitDx=0;exitDy=0;" edge="1" parent="1" source="w9KCVopszYJ56_shnlxz-28" target="w9KCVopszYJ56_shnlxz-31">
          <mxGeometry relative="1" as="geometry">
            <mxPoint x="642.0000000000002" y="150" as="sourcePoint" />
          </mxGeometry>
        </mxCell>
        <mxCell id="w9KCVopszYJ56_shnlxz-49" value="1:n" style="text;html=1;strokeColor=none;fillColor=none;align=center;verticalAlign=middle;whiteSpace=wrap;rounded=0;" vertex="1" parent="1">
          <mxGeometry x="637" y="120" width="60" height="30" as="geometry" />
        </mxCell>
        <mxCell id="w9KCVopszYJ56_shnlxz-54" value="1:n" style="text;html=1;strokeColor=none;fillColor=none;align=center;verticalAlign=middle;whiteSpace=wrap;rounded=0;" vertex="1" parent="1">
          <mxGeometry x="270" y="10" width="60" height="30" as="geometry" />
        </mxCell>
        <mxCell id="w9KCVopszYJ56_shnlxz-61" value="Fach_has_Themengebiete" style="swimlane;childLayout=stackLayout;resizeParent=1;resizeParentMax=0;horizontal=1;startSize=20;horizontalStack=0;html=1;" vertex="1" parent="1">
          <mxGeometry x="120" y="280" width="200" height="160" as="geometry" />
        </mxCell>
        <mxCell id="w9KCVopszYJ56_shnlxz-62" value="&lt;div&gt;Variable&lt;/div&gt;" style="swimlane;startSize=20;horizontal=0;html=1;" vertex="1" parent="w9KCVopszYJ56_shnlxz-61">
          <mxGeometry y="20" width="200" height="140" as="geometry">
            <mxRectangle y="20" width="480" height="40" as="alternateBounds" />
          </mxGeometry>
        </mxCell>
        <mxCell id="w9KCVopszYJ56_shnlxz-63" value="&lt;div&gt;ID_Fach (FK)&lt;br&gt;&lt;/div&gt;&lt;div&gt;ID_Themengebiet (FK)&lt;/div&gt;&lt;div&gt;&lt;br&gt;&lt;/div&gt;&lt;div&gt;&lt;br&gt;&lt;/div&gt;&lt;div&gt;&quot;Beide FKs zusammen &lt;br&gt;&lt;/div&gt;&lt;div&gt;ergeben den PK&quot;&lt;br&gt;&lt;/div&gt;" style="text;html=1;align=center;verticalAlign=middle;resizable=1;points=[];autosize=1;strokeColor=none;fillColor=none;movable=1;rotatable=1;deletable=1;editable=1;locked=0;connectable=1;" vertex="1" parent="w9KCVopszYJ56_shnlxz-62">
          <mxGeometry x="40" y="20" width="150" height="100" as="geometry" />
        </mxCell>
        <mxCell id="w9KCVopszYJ56_shnlxz-64" style="edgeStyle=orthogonalEdgeStyle;rounded=0;orthogonalLoop=1;jettySize=auto;html=1;entryX=0.2;entryY=-0.005;entryDx=0;entryDy=0;entryPerimeter=0;" edge="1" parent="1" source="w9KCVopszYJ56_shnlxz-19" target="w9KCVopszYJ56_shnlxz-61">
          <mxGeometry relative="1" as="geometry">
            <Array as="points">
              <mxPoint x="80" y="240" />
              <mxPoint x="160" y="240" />
            </Array>
          </mxGeometry>
        </mxCell>
        <mxCell id="w9KCVopszYJ56_shnlxz-65" style="edgeStyle=orthogonalEdgeStyle;rounded=0;orthogonalLoop=1;jettySize=auto;html=1;entryX=0.6;entryY=-0.005;entryDx=0;entryDy=0;entryPerimeter=0;" edge="1" parent="1" target="w9KCVopszYJ56_shnlxz-61">
          <mxGeometry relative="1" as="geometry">
            <mxPoint x="320" y="200" as="sourcePoint" />
          </mxGeometry>
        </mxCell>
        <mxCell id="w9KCVopszYJ56_shnlxz-66" value="1:n" style="text;html=1;strokeColor=none;fillColor=none;align=center;verticalAlign=middle;whiteSpace=wrap;rounded=0;" vertex="1" parent="1">
          <mxGeometry x="90" y="240" width="60" height="30" as="geometry" />
        </mxCell>
        <mxCell id="w9KCVopszYJ56_shnlxz-67" value="1:n" style="text;html=1;strokeColor=none;fillColor=none;align=center;verticalAlign=middle;whiteSpace=wrap;rounded=0;" vertex="1" parent="1">
          <mxGeometry x="250" y="250" width="60" height="30" as="geometry" />
        </mxCell>
      </root>
    </mxGraphModel>
  </diagram>
</mxfile>
